<svg width="23" height="17" viewBox="0 0 23 17" fill="none" xmlns="http://www.w3.org/2000/svg">
<path fill-rule="evenodd" clip-rule="evenodd" d="M22.6909 9.81131C22.3522 10.0653 21.8717 9.99668 21.6177 9.65799C20.6807 8.39852 19.2013 7.65883 17.6315 7.66492C17.3233 7.66489 17.0451 7.4803 16.9253 7.19636C16.8449 7.00582 16.8449 6.79089 16.9253 6.60035C17.0451 6.3164 17.3233 6.13181 17.6315 6.13179C18.8266 6.13168 19.8224 5.21625 19.9229 4.02542C20.0234 2.83459 19.195 1.76525 18.0168 1.56493C16.8387 1.3646 15.7034 2.10005 15.4047 3.25716C15.2988 3.66729 14.8805 3.91397 14.4704 3.80813C14.0603 3.70229 13.8136 3.28401 13.9194 2.87388C14.3288 1.2898 15.6986 0.140237 17.3297 0.0118904C18.9608 -0.116456 20.4935 0.804713 21.1456 2.30527C21.7977 3.80582 21.4254 5.55487 20.2187 6.65976C21.261 7.11107 22.1672 7.82725 22.8471 8.73716C22.969 8.90022 23.0211 9.10512 22.9918 9.30664C22.9625 9.50816 22.8542 9.68974 22.6909 9.81131ZM17.5281 15.7139C17.6791 15.9515 17.6877 16.2528 17.5505 16.4987C17.4133 16.7446 17.1523 16.8954 16.8708 16.8916C16.5892 16.8878 16.3324 16.7299 16.2019 16.4804C15.2194 14.8168 13.4311 13.7961 11.499 13.7961C9.56692 13.7961 7.77861 14.8168 6.79611 16.4804C6.6656 16.7299 6.4088 16.8878 6.12725 16.8916C5.8457 16.8954 5.58472 16.7446 5.44749 16.4987C5.31027 16.2528 5.31889 15.9515 5.46995 15.7139C6.21314 14.4369 7.34631 13.4321 8.70295 12.8469C7.13772 11.6485 6.51024 9.58591 7.1429 7.71887C7.77557 5.85184 9.52768 4.59558 11.499 4.59558C13.4703 4.59558 15.2224 5.85184 15.8551 7.71887C16.4878 9.58591 15.8603 11.6485 14.2951 12.8469C15.6517 13.4321 16.7849 14.4369 17.5281 15.7139ZM11.499 12.2643C13.1925 12.2643 14.5653 10.8915 14.5653 9.19805C14.5653 7.5046 13.1925 6.13179 11.499 6.13179C9.80555 6.13179 8.43273 7.5046 8.43273 9.19805C8.43273 10.8915 9.80555 12.2643 11.499 12.2643ZM6.13303 6.89835C6.13303 6.47499 5.78983 6.13179 5.36647 6.13179C4.1714 6.13168 3.17558 5.21625 3.07511 4.02542C2.97464 2.83459 3.80302 1.76525 4.98117 1.56493C6.15933 1.3646 7.29458 2.10005 7.59334 3.25716C7.69918 3.66729 8.11746 3.91397 8.5276 3.80813C8.93773 3.70229 9.18441 3.28401 9.07857 2.87388C8.66918 1.2898 7.29941 0.140237 5.66832 0.0118904C4.03724 -0.116456 2.50452 0.804713 1.85241 2.30527C1.20031 3.80582 1.57261 5.55487 2.7793 6.65976C1.738 7.1115 0.832908 7.82765 0.153812 8.73716C-0.10047 9.07585 -0.0320439 9.55655 0.306647 9.81083C0.645337 10.0651 1.12604 9.99668 1.38032 9.65799C2.31731 8.39852 3.7967 7.65883 5.36647 7.66492C5.78983 7.66492 6.13303 7.32172 6.13303 6.89835Z" fill="#0D141C"/>
</svg>
