<svg width="20" height="20" viewBox="0 0 20 20" fill="none" xmlns="http://www.w3.org/2000/svg">
<path fill-rule="evenodd" clip-rule="evenodd" d="M19.7746 18.6876L14.9654 13.8793C17.8611 10.4029 17.5102 5.26372 14.1689 2.21309C10.8276 -0.837539 5.6778 -0.720501 2.47852 2.47877C-0.720751 5.67805 -0.837789 10.8278 2.21284 14.1692C5.26347 17.5105 10.4026 17.8613 13.8791 14.9657L18.6873 19.7749C18.9876 20.0751 19.4744 20.0751 19.7746 19.7749C20.0749 19.4746 20.0749 18.9878 19.7746 18.6876ZM1.55781 8.47365C1.55781 4.65427 4.65402 1.55806 8.4734 1.55806C12.2928 1.55806 15.389 4.65427 15.389 8.47365C15.389 12.293 12.2928 15.3892 8.4734 15.3892C4.65578 15.385 1.56204 12.2913 1.55781 8.47365Z" fill="#0D141C"/>
</svg>
