<svg width="48" height="48" viewBox="0 0 48 48" fill="none" xmlns="http://www.w3.org/2000/svg">
<rect width="48" height="48" rx="8" fill="#2563EB"/>
<rect x="8" y="12" width="32" height="28" rx="2" fill="white"/>
<rect x="12" y="16" width="4" height="4" fill="#2563EB"/>
<rect x="18" y="16" width="4" height="4" fill="#2563EB"/>
<rect x="24" y="16" width="4" height="4" fill="#2563EB"/>
<rect x="30" y="16" width="4" height="4" fill="#2563EB"/>
<rect x="12" y="22" width="4" height="4" fill="#2563EB"/>
<rect x="18" y="22" width="4" height="4" fill="#2563EB"/>
<rect x="24" y="22" width="4" height="4" fill="#2563EB"/>
<rect x="30" y="22" width="4" height="4" fill="#2563EB"/>
<rect x="12" y="28" width="4" height="4" fill="#2563EB"/>
<rect x="18" y="28" width="4" height="4" fill="#2563EB"/>
<rect x="24" y="28" width="4" height="4" fill="#2563EB"/>
<rect x="30" y="28" width="4" height="4" fill="#2563EB"/>
<rect x="16" y="34" width="16" height="4" fill="#2563EB"/>
</svg>